v 0 0 0 
v 0 0 10
v 25 0 10
v 25 0 0
v 0 5 0 
v 0 5 10
v 25 5 10
v 25 5 0
v 5 0 2
v 5 0 8
v 10 0 8
v 10 0 2
v 5 0.5 2
v 5 0.5 8
v 10 0.5 8
v 10 0.5 2

v 15 0 2
v 15 0 8
v 20 0 8
v 20 0 2
v 15 0.5 2
v 15 0.5 8
v 20 0.5 8
v 20 0.5 2
vn 0 1 0
vn 1 0 0
vn -1 0 0
vn 0 0 1
vn 0 0 -1
f 1//1 2//1 3//1
f 1//1 3//1 4//1

f 1//2 6//2 2//2
f 1//2 5//2 6//2
f 3//3 7//3 4//3
f 4//3 7//3 8//3
f 1//4 4//4 8//4
f 1//4 8//4 5//4
f 2//5 7//5 3//5
f 2//5 6//5 7//5

f 9//3 10//3 14//3
f 9//3 14//3 13//3
f 11//2 12//2 15//2
f 12//2 16//2 15//2
f 9//5 16//5 12//5
f 9//5 13//5 16//5
f 10//4 11//4 15//4
f 10//4 15//4 14//4

f 13//1 14//1 15//1
f 13//1 15//1 16//1

f 17//3 18//3 22//3
f 17//3 22//3 21//3
f 19//2 20//2 23//2
f 20//2 24//2 23//2
f 17//5 24//5 20//5
f 17//5 21//5 24//5
f 18//4 19//4 23//4
f 18//4 23//4 22//4

f 21//1 22//1 23//1
f 21//1 23//1 24//1