v 0 0 0 
v 0 0 10
v 25 0 10
v 25 0 0
v 0 5 0 
v 0 5 10
v 25 5 10
v 25 5 0
v 5 0 2
v 5 0 8
v 10 0 8
v 10 0 2
v 5 0.5 2
v 5 0.5 8
v 10 0.5 8
v 10 0.5 2

v 15 0 2
v 15 0 8
v 20 0 8
v 20 0 2
v 15 0.5 2
v 15 0.5 8
v 20 0.5 8
v 20 0.5 2
vn 0 1 0
vn 1 0 0
vn -1 0 0
vn 0 0 1
vn 0 0 -1
vt 0 0
f 1/1/1 2/1/1 3/1/1
f 1/1/1 3/1/1 4/1/1

f 1/1/2 6/1/2 2/1/2
f 1/1/2 5/1/2 6/1/2
f 3/1/3 7/1/3 4/1/3
f 4/1/3 7/1/3 8/1/3
f 1/1/4 4/1/4 8/1/4
f 1/1/4 8/1/4 5/1/4
f 2/1/5 7/1/5 3/1/5
f 2/1/5 6/1/5 7/1/5

f 9/1/3 10/1/3 14/1/3
f 9/1/3 14/1/3 13/1/3
f 11/1/2 12/1/2 15/1/2
f 12/1/2 16/1/2 15/1/2
f 9/1/5 16/1/5 12/1/5
f 9/1/5 13/1/5 16/1/5
f 10/1/4 11/1/4 15/1/4
f 10/1/4 15/1/4 14/1/4

f 13/1/1 14/1/1 15/1/1
f 13/1/1 15/1/1 16/1/1

f 17/1/3 18/1/3 22/1/3
f 17/1/3 22/1/3 21/1/3
f 19/1/2 20/1/2 23/1/2
f 20/1/2 24/1/2 23/1/2
f 17/1/5 24/1/5 20/1/5
f 17/1/5 21/1/5 24/1/5
f 18/1/4 19/1/4 23/1/4
f 18/1/4 23/1/4 22/1/4

f 21/1/1 22/1/1 23/1/1
f 21/1/1 23/1/1 24/1/1